<?xml version="1.0" encoding="UTF-8"?>
<svg width="951px" height="307px" viewBox="0 0 951 307" version="1.1" xmlns="http://www.w3.org/2000/svg" xmlns:xlink="http://www.w3.org/1999/xlink">
    <!-- Generator: Sketch 45.2 (43514) - http://www.bohemiancoding.com/sketch -->
    <title>Fyle</title>
    <desc>Created with Sketch.</desc>
    <defs></defs>
    <g id="Page-1" stroke="none" stroke-width="1" fill="none" fill-rule="evenodd">
        <g id="Desktop-HD" transform="translate(-281.000000, -1765.000000)" fill-rule="nonzero">
            <g id="Group-13" transform="translate(281.000000, 1765.000000)">
                <g id="Fyle_Logo_Full" transform="translate(357.000000, 5.000000)" fill="#000000">
                    <g id="XMLID_1363_">
                        <path d="M38.5107134,40.4449668 L38.5107134,77.8957523 L93.980273,77.8957523 L93.980273,116.053156 L38.5107134,116.053156 L38.5107134,224.165801 L0.353309297,224.165801 L0.353309297,40.4449668 C0.353309297,18.5397904 18.0187741,0.52101627 40.2772598,0.52101627 L108.819263,0.52101627 L108.819263,39.0317296 L40.2772598,39.0317296 C39.217332,38.6784203 38.5107134,39.3850389 38.5107134,40.4449668 Z" id="XMLID_1371_"></path>
                        <path d="M257.915787,301.065948 L154.749472,301.065948 L154.749472,262.555235 L257.915787,262.555235 C258.622405,262.555235 259.682333,261.848616 259.682333,260.788688 L259.682333,233.937182 L166.761988,233.937182 C144.856812,233.937182 126.838038,215.918408 126.838038,194.013231 L126.838038,66.468575 L164.995442,66.468575 L164.995442,194.36654 C164.995442,195.426468 165.70206,196.486396 167.115297,196.486396 L257.915787,196.486396 C258.622405,196.486396 259.682333,195.779778 259.682333,194.36654 L259.682333,66.468575 L297.839737,66.468575 L297.839737,261.141998 C297.486428,283.047174 279.820963,301.065948 257.915787,301.065948 Z" id="XMLID_1369_"></path>
                        <path d="M366.028432,0.52101627 L366.028432,184.241851 C366.028432,185.301779 366.73505,186.361706 367.794978,186.361706 L401.712671,186.361706 L401.712671,224.51911 L367.794978,224.51911 C345.889802,224.51911 327.871027,206.500336 327.871027,184.59516 L327.871027,0.874325567 L366.028432,0.874325567 L366.028432,0.52101627 Z" id="XMLID_1367_"></path>
                        <path d="M593.559619,95.5612171 L593.559619,158.803581 L460.362014,158.803581 L460.362014,183.888541 C460.362014,184.948469 461.068632,186.008397 462.48187,186.008397 L593.559619,186.008397 L593.559619,224.165801 L462.835179,224.165801 C440.930002,224.165801 422.911228,206.147027 422.911228,184.241851 L422.911228,95.9145264 C422.911228,74.00935 440.930002,55.9905759 462.835179,55.9905759 L553.635668,55.9905759 C575.540845,55.6372666 593.559619,73.6560407 593.559619,95.5612171 Z M555.755524,120.646177 L555.755524,95.5612171 C555.755524,94.5012892 555.048905,93.4413613 553.635668,93.4413613 L462.835179,93.4413613 C461.775251,93.4413613 460.715323,94.1479799 460.715323,95.5612171 L460.715323,120.646177 L555.755524,120.646177 Z" id="XMLID_1364_"></path>
                    </g>
                </g>
                <path d="M126.136596,0 L15.6524947,0 C7.00786056,0 0,7.00786056 0,15.6524947 L0,286.347506 C0,294.99214 7.00786056,302.000001 15.6524947,302.000001 L286.347505,302.000001 C294.99214,302.000001 302,294.99214 302,286.347506 L302,15.6524947 C302,7.00786056 294.99214,0 286.347505,0 L243.938215,0 L146.907542,0 L146.907542,6.32172182 C146.907542,7.86999911 146.907542,192.036805 146.907543,194.101175 L146.907542,196.165545 C146.39145,205.971303 143.294895,213.712691 137.359831,219.647755 C125.747749,231.259836 105.62014,232.808114 88.0729949,232.808114 C64.3327392,232.808114 32.3350028,229.711558 26.9160314,204.164979 L26.1418926,197.713822 C25.8838464,196.423591 25.8838464,192.810944 25.8838467,183.521278 C25.8838463,174.747705 25.8838463,162.361485 25.8838465,149.459172 L25.8838466,146.87871 L25.8838463,49.8533162 C25.8838468,43.6602055 27.9482164,38.4992807 32.3350032,34.1124939 C36.7217895,29.7257075 41.8827148,27.6613374 48.075825,27.6613374 L106.136233,27.9193837 L108.200603,28.4354763 L108.200604,45.982622 L108.200603,48.0469919 L106.136233,48.0469924 L103.039678,48.0469919 L95.2982901,48.0469923 L49.8821484,48.0469924 C48.333871,48.0469923 47.5597323,48.8211309 47.5597322,49.853316 C47.5597325,52.9498709 47.5597321,54.4981488 47.5597321,54.4981488 L47.5597321,93.7211803 L89.363226,93.7211801 L91.4275964,93.7211801 L91.4275964,95.7855505 L91.4275964,111.784419 L91.4275964,113.848788 L89.3632265,113.848789 L47.5597325,113.848788 L47.5597324,157.20056 L47.5597321,160.297115 L47.5597324,196.423591 C48.0758249,210.874182 69.4936646,213.712691 87.5569023,213.712691 C95.5563367,213.454645 112.587389,213.454644 120.328777,205.713256 C122.393147,203.648886 124.329087,199.778192 126.136596,194.101175 L126.136596,11.7016417 L126.136596,-4.99600361e-16 Z" id="Logo_square" fill="#FF2E63"></path>
            </g>
        </g>
    </g>
</svg>